# xmcd CD database file
#
# Track frame offsets:
#	150
#	12601
#	25695
#	40915
#	52067
#	64636
#	76251
#	88387
#	102129
#	112962
#	123652
#	139522
#	150214
#	162271
#	177297
#	187137
#	198528
#	212933
#	228245
#	245243
#	256505
#	266221
#	279546
#	293900
#	305182
#
# Disc length: 4214 seconds
#
# Revision: 2
# Processed by: cddbd v1.5.2PL0 Copyright (c) Steve Scherf et al.
# Submitted via: CDex 1.70beta2
#
DISCID=6f107419
DTITLE=Various Artist - 012 - Top Country - Down In Tennessee
DYEAR=1996
DGENRE=Country
TTITLE0=Merie Haggard - Okie From Muskogee
TTITLE1=Charlie Rich - Good Time Charlie's Got The Blues
TTITLE2=Ray Price - Night Life
TTITLE3=Faron Young - Wine Me Up
TTITLE4=Hank Lockin - It's a little More Like Heaven
TTITLE5=Don Gibson - Give My Self A Party
TTITLE6=Moe Bandy - High Noon
TTITLE7=Claude King - Tiger Woman
TTITLE8=Charlie Lauvin - See The Big Man Cry
TTITLE9=Pasty Clin - I Love You Honey
TTITLE10=Cal Smith - Country Bumpkin
TTITLE11=Kenny Price - Walking One New Grass
TTITLE12=Willie Nelson - I Hope So
TTITLE13=Roger Miller - Me and Bobby Mc Gee
TTITLE14=Johnny Paycheck - The Race Is One
TTITLE15=Ferlin Husky - San Antonio Rose
TTITLE16=Bob Luman - Lonely Woman Make Good Lovers
TTITLE17=Barbara Fairchild - Baby Doll
TTITLE18=Lee Greenwood - Fool's Gold
TTITLE19=Stu Phillips - Juanita Jones
TTITLE20=Skeeter Davis - Am I That Easy To Forget 
TTITLE21=Stonwall Jackson - Nobody's Darlin But Mine
TTITLE22=Lynn Anderson - Cry
TTITLE23=Carl Smith - Hey Joe
TTITLE24=David Hutson - Sea Of Love
EXTD=YEAR: 1996
EXTT0=
EXTT1=
EXTT2=
EXTT3=
EXTT4=
EXTT5=
EXTT6=
EXTT7=
EXTT8=
EXTT9=
EXTT10=
EXTT11=
EXTT12=
EXTT13=
EXTT14=
EXTT15=
EXTT16=
EXTT17=
EXTT18=
EXTT19=
EXTT20=
EXTT21=
EXTT22=
EXTT23=
EXTT24=
PLAYORDER=
